<?xml version="1.0" encoding="UTF-8" standalone="no"?>
<svg
   xmlns:dc="http://purl.org/dc/elements/1.1/"
   xmlns:cc="http://creativecommons.org/ns#"
   xmlns:rdf="http://www.w3.org/1999/02/22-rdf-syntax-ns#"
   xmlns:svg="http://www.w3.org/2000/svg"
   xmlns="http://www.w3.org/2000/svg"
   viewBox="0 0 645.33331 554.66669"
   height="554.66669"
   width="645.33331"
   xml:space="preserve"
   id="svg2"
   version="1.1"><metadata
     id="metadata8"><rdf:RDF><cc:Work
         rdf:about=""><dc:format>image/svg+xml</dc:format><dc:type
           rdf:resource="http://purl.org/dc/dcmitype/StillImage" /></cc:Work></rdf:RDF></metadata><defs
     id="defs6"><clipPath
       id="clipPath30"
       clipPathUnits="userSpaceOnUse"><path
         style="clip-rule:evenodd"
         id="path28"
         d="m 1740,1800 c 55.23,0 100,44.77 100,100 0,55.23 -44.77,100 -100,100 -55.23,0 -100,-44.77 -100,-100 0,-55.23 44.77,-100 100,-100 z" /></clipPath><clipPath
       id="clipPath36"
       clipPathUnits="userSpaceOnUse"><path
         id="path34"
         d="M 0,0 H 4840 V 4160 H 0 Z" /></clipPath></defs><g
     transform="matrix(1.3333333,0,0,-1.3333333,0,554.66667)"
     id="g10"><g
       transform="scale(0.1)"
       id="g12"><g
         transform="scale(10)"
         id="g14"><text
           id="text20"
           style="font-variant:normal;font-weight:500;font-size:128px;font-family:HelveticaNeue;-inkscape-font-specification:HelveticaNeue-Medium;writing-mode:lr-tb;fill:#221e32;fill-opacity:1;fill-rule:nonzero;stroke:none"
           transform="matrix(1,0,0,-1,188,132)"><tspan
             id="tspan16"
             y="0"
             x="0 67.167999">et</tspan><tspan
             id="tspan18"
             y="-76"
             x="-32 6.6240001">ts</tspan></text>
</g><path
         id="path22"
         style="fill:none;stroke:#e3b639;stroke-width:160;stroke-linecap:square;stroke-linejoin:miter;stroke-miterlimit:10;stroke-dasharray:none;stroke-opacity:1"
         d="m 2760,2320 h 320" /><g
         id="g24"><g
           clip-path="url(#clipPath30)"
           id="g26"><g
             clip-path="url(#clipPath36)"
             id="g32"><path
               id="path38"
               style="fill:#e3b639;fill-opacity:1;fill-rule:nonzero;stroke:none"
               d="m 1440,1600 h 600 v 600 h -600 z" /></g></g></g></g></g></svg>